<svg xmlns="http://www.w3.org/2000/svg" viewBox="0 0 100 100"><title>icon-client-huadian</title><path d="M76.241,25A38.585,38.585,0,0,1,89.6,27.848c1.7.639,1.783,1.5.65,2.826C85.111,36.7,82.274,43.943,79.473,51.2a132.1,132.1,0,0,1-5.306,12.483c-5.832,11.46-18.8,14.649-30.881,7.559-1.34-.786-1.636-1.6-.493-2.754a23.522,23.522,0,0,0,3.715-5.651,4.265,4.265,0,0,1,2.257-2.206c3.111-1.143,4.821-3.588,6.042-6.495,1.786-4.252,3.125-8.705,5.881-12.515,1.234-1.706-.538-1.759-1.4-1.963-1.742-.412-2.417-1.038-1.369-2.824C62.21,29.524,68.283,25.154,76.241,25Z" style="fill:#092469"/><path d="M23.665,74.946a41.383,41.383,0,0,1-13.339-2.88c-1.317-.483-1.805-1.158-.791-2.363,6.416-7.623,9.31-17.005,13.017-25.985.975-2.361,2.012-4.7,3.163-6.984,5.094-10.079,15.3-14.035,25.865-10.08,6.59,2.467,6.526,2.427,3.051,8.056-1.451,2.35-2.761,4.5-5.594,5.661-2.569,1.049-3.5,3.887-4.5,6.349-1.512,3.734-2.706,7.607-4.976,10.994-1.038,1.549-.31,2.3,1.166,2.81,1.344.465,1.9,1.177,1.028,2.647C37.506,70.361,31.527,74.719,23.665,74.946Z" style="fill:#37add1"/></svg>