<svg xmlns="http://www.w3.org/2000/svg" viewBox="0 0 100 100"><title>icon-client-cggc</title><path d="M71.569,52.109q-19.241-.006-38.483,0c-1.646,0-3.042,0-3.686-2.065-3.537-11.37,3.46-24.1,14.911-26.939A21.182,21.182,0,0,1,70.576,39.757c.423,2.309.544,4.673.82,7.151h3.918C77.532,33.525,67.981,20.34,54.9,17.948c-14.633-2.677-28.182,6.938-30.713,20.672A26.149,26.149,0,0,0,45.624,69.408c12.155,2.159,26.6-6.622,28.334-17.3ZM50.7,64.89c-6.755.142-12.425-2.254-17.35-8.064H65.414C64.528,60.786,56.42,64.769,50.7,64.89ZM30.162,46.825,46.551,23.87V46.825Zm23.114-22.7L69.691,46.9H53.276ZM19.341,76.007l-.519.549.025,3.955.5.471,8.591-.026.557-.588V79h1.519V80.99L28.545,82.5H18.726l-1.394-1.353L17.3,75.934l1.4-1.445,11.306-.029L28.5,75.991Zm61.837,3H82.7V80.99L81.227,82.5H71.408l-1.394-1.353-.028-5.213,1.4-1.445L82.7,74.461l-1.519,1.531-9.154.016-.519.549.025,3.955.5.471,8.591-.026.557-.588Zm-44.985-4.66,11.457-.028-1.543,1.523-9.28.023-.52.55.025,3.955.5.471,8.469-.028-1.735,1.547H36.211L34.817,81l-.028-5.213ZM41.626,77.6H47.65v4.755H46.107V79.143H41.626Zm12.128-3.255,11.457-.028-1.543,1.523-9.28.023-.52.55.025,3.955.5.471,8.469-.028-1.735,1.547H53.771L52.378,81l-.028-5.213ZM59.187,77.6h6.025v4.755H63.668V79.143H59.187Z" style="fill:#005baa"/></svg>