<svg xmlns="http://www.w3.org/2000/svg" viewBox="0 0 100 100"><title>icon-client-bei</title><path d="M56.033,79.336C42.676,82.424,27.53,74.277,24.4,64.6c16.117,5.464,29.122.716,39.029-12.406,6.437-8.525,6.29-19.7.1-29.328A26.5,26.5,0,0,1,76.765,34.682c2.2,3.981,1.869,8.182.1,12.228A40.474,40.474,0,0,1,52.605,69.686c-1.29.464-2.809.431-3.592,1.871,11.317,5.577,26.762-5.929,31.522-23.449C82.324,63.1,72.67,75.49,56.033,79.336ZM47,34.331c8.835,3.852,12.246,10.989,9.711,20.85,6.818-4.352,9.1-18.584,4.67-26.45-4.348-7.725-12.85-10.78-20.34-7.311,10.306.845,17.206,6.029,17.333,13.631-3.688-3.29-7.045-6.466-11.546-7.837-4.676-1.424-9.51-2.037-14.153-.591-4.6,1.433-7.886,4.778-10.178,10.4C30.808,31.338,38.949,30.823,47,34.331ZM27.227,59.06c2.408,4.08,6.525,5.144,14.447,3.43-6.9-2.1-11.128-6.329-10.941-13.128.2-7.268,4.516-11.831,12.293-13.266-5.844-2.487-15.17-.223-19.535,4.325C19.149,44.945,18.065,50.9,20.6,56.287c2.177-9.758,2.6-10.6,6.106-12.246C25.5,54.348,25.565,56.245,27.227,59.06Z" style="fill:#0267b7"/></svg>