<svg xmlns="http://www.w3.org/2000/svg" viewBox="0 0 100 100"><title>icon-client-huaneng</title><path d="M31.151,33.822l20.708,9.206c.434.193.886.353,1.3.586.769.435,2.153.6,1.61,1.877s-1.693.4-2.479.14c-6.32-2.061-12.615-4.2-18.921-6.3-.879-.293-1.776-.531-2.895-.862.278,1.128,1.092,1.184,1.7,1.454,6.5,2.912,13.012,5.8,19.5,8.728.873.394,2.4.662,1.74,2.047-.526,1.1-1.714.244-2.538-.026-7.1-2.335-14.191-4.717-21.733-7.234a3,3,0,0,0,2.121,1.767c6.678,2.979,13.426,5.812,20.013,8.981,2.154,1.036,2.362.041,2.723-1.481,1.906-8.035,3.94-16.042,5.671-24.115.6-2.794,1.834-3.706,4.617-3.581,4.646.208,9.308.108,13.962.037,2.054-.032,2.959.448,2.388,2.782q-5.483,22.4-10.772,44.853a2.566,2.566,0,0,1-2.959,2.3c-5.035-.047-10.07-.064-15.1.005-2.284.032-3.095-.723-2.474-3.081,1.159-4.4,2.129-8.858,3.174-13.293.205-.871.794-1.693-.74-2.183-7.687-2.457-15.335-5.038-23-7.56-.137-.045-.338.1-1.049.348,4.661,2.093,8.883,4.165,13.246,5.877,2.39.938,2.912,2.119,2.221,4.53-1.2,4.193-2.132,8.467-3.06,12.733A2.9,2.9,0,0,1,36.762,75q-7.693-.131-15.389,0c-2.04.035-2.454-.811-2.019-2.6,1.768-7.286,3.35-14.622,5.29-21.861,1.311-4.893,2.363-9.835,3.526-14.757.439-1.858,1.139-3.618,1.421-5.558.75-5.168.888-5.15,6.105-5.15,4.37,0,8.741.065,13.109-.021,2.035-.04,2.5.843,2.046,2.621-.727,2.851-1.521,5.689-2.111,8.569-.385,1.882-1.236,2.325-3,1.7-3.847-1.361-7.724-2.638-11.6-3.912C33.371,33.774,32.648,33.123,31.151,33.822Z" style="fill:#0075bf"/></svg>