<svg xmlns="http://www.w3.org/2000/svg" viewBox="0 0 100 100"><title>icon-map-cn</title><path d="M99.589,17.769l-.145.35.089.37.061,1.057-.051.411.186.6L99.54,21l-.08,1.288-.292.353.08.973-1.581.129-.4-.154-.527,1.086-.53.254.977,1.69.167,1.166.263.283L97.368,29.3l-.5.36-.186.315.206.234-.485-.086-.341-.524-.482.077-.051,1.356-.556.148-.112.671-.739.488-.784.2-.094.337.546.607-.042.4-1.5.2-.7-.488-.578.4-.054.806-.733,1.237-1.115.945-.954,1.2-.138.668-.357.215-.559.051-.212.212-.475.087-.116.254L86,39.7l-.543.447-.781.7-.18.414-.235.26-.414.286-.363.414-.418.337-.154-.18.1-.389.234-.026.1-.209.286-.157.051-.257.157-.443L83.489,41l-.209-.183-.363-.209.234-.129.026-.52.18-.206.418-.312.128-.392.183-.414.18-.414-.286-.209-.517-.517-.312-.08-.366.209-.517.026-.337.209-.051.337-.157.154-.389.546-.026.52L81,39.626l-.623.469-.546.337v.234l-.26.154-.286.466-.128.469-.077.521-.132-.055-.154.106h-.363l-.157.18-.257.132-.366-.183-.231.051L77,42.794l-.18.443.051.675.286.543.414.337.312.26.337-.206.286-.106.312.234.495.129.337.366.077.986.546.206.726.08.337-.366.077-.44.469-.414.077-.418.44-.337.418-.154.337.154.44.286L83.826,45l.18.209.234.1.414-.209.52-.206.337.154L85.8,44.9l.337.128.026.469-.1.257.129.341-.337.257-.286-.257-.129.128-.286-.051-.26.337-.44.337-.337.235-.469.389-.234.051-.154.286.026.623-.286.286-.337-.051-.26-.132-.154.157.286.312-.26.231-.157.418-.077.257-.337.106-.209.517-.154.235-.051.443-.26.257.051.469.572.1.234.26.594.18.678.209.257.26.495.935.389.649.623.909.132.337-.08.337.183.128.517.132.469.18.183.52.492.129.546.495.286.389-.08.157-.231.051-.469-.08-.363-.206-.363-.051h-.495l-.283-.106-.183-.26-.495-.051-.337.157-.18.286.154-.051.418-.209.389.077.051.286.492.077.418.08.206.231.418.235.543.209.366.312-.08.414-.337.414-.466.337-.649.52-.026.312-.312.1-.546.051-.337.183.077.128.418.106.466.077.26-.1.492-.443.392-.051.466.363.337.235.26-.1.154-.366.234-.077.572.235.051.26-.363.18-.44.337-.366.495.286-.026.183-.443.051.623.1.392-.18.154.1.312-.286.389V64.6l-.286.26.183.312.209.443-.341.231-.283.392-.08-.52-.312.128-.051.623-.18.132-.157.363-.18.517-.029.234.029.389-.286.392h-.26l.18.129-.206.209-.026.363-.157.128-.337.235-.077.414-.1-.129-.337-.051-.08.286.392.337.1.18-.183.234-.128.414.154.26-.051.234.132.231-.234.366.234.337-.055.18-.231-.051-.286-.18-.183.206-.051.286.234.286-.234.077-.209.183-.206.18.154.286-.1.183-.546.026.077.209.209.128-.1.235-.132.18h-.44l-.312.157-.183.26-.414.077.235.206.128.26-.206.209-.209.337h-.286v.44l-.389-.1.1.466-.286-.051-.077.363-.363-.026-.183.26.209.183-.389.18-.6.051.209.08.154.26-.414.18-.051.546-.495.077-.312.234-.234.051-.389.286-.414-.234-.1.132-.08.44h-.286l-.026-.234-.128-.077-.312.026-.363.337-.157.26-.337.026-.051-.389-.363.18-.029.389-.3-.138-.347.138.328.276-.209.132.058.186-.289-.055-.174-.045-.26.026.106-.369-.286.016-.244-.225-.1-.247-.228.023-.209-.209-.077.209.086.138.039.36.145.379.026.186-.1.19-.154.029-.289-.276.132.328-.363.469L72.823,82l-.1.218.042.607h-.414l-.443.312-.389-.1-.077.234H70.69l-.235.128-.312.106v.231l-.337.235H69.47l-.183.154-.572.029-.18.231-.414.026-.366.495-.257.026-.366.26-.231.234.1.337.286.1.077.363.363.363-.026.157-.363.363-.777.026-.08-.26.132-.1-.443-.235-.051-.6-.286-.077.106-.832.286-.44.129-.234-.6-.051-.312-.389-.128.026.1.44-.623.132-.18.128-.106-.414-.286-.077L63.937,84l-.154.157-.26-.337-.077-.312-.286.077v.492l-.286.08-.1.231h-.209l-.055-.048-.344.135-.373-.244-.694.193-.765-.312L60,83.723l-.62-.157-.186-.723-.167-.164.035-.347.376-.3-.012-.318-.591-.218-.408.17-.331-.318-.492.161-.771-.414-.53-.511-.986.665-.023.434-.726.279-.344.167-.276-.257-.328.324-.18.43-.652-.646-.267.469-.341-.482-.71.758-.209-.016-.241-.305-.675-.334-.305.45-.4.3-.72.035-.27-.122-.315.6.482,1.3-.1,1.063-.466-.112-.492.09-.479-1.23-.549.193-.511.421-.482-.2-.263.267-.3-.6-.3-.318.065-.524-1.07-.254-.206.042-.37-.161.1-.427.321-.424-.08-.443.382-.572-.086-.292-.816-.01-.366-.321-.174-1.121-.273-.408.37-.521-.527.055-.247-.154-.951.064-.3.308-.543.186-.061-.257.276-.453-.08-.44-.17-.19-.068-.514.157-.26L40.508,77l-.065-.247.177-.594.639-.254.167-.472.318-.013.347-.482.331-.145-.106-.5.308-.646.048-1.577-.086-.347.083-.794-.466-.292L42,70.885l-.44-.97-.215-.742-.4-.177-.273-.331-.376.132-.373.424-6.3-.916-3.964,1.359-1.079-.3-.8-.562-1.185-.154-.633-.633-.6-.2-1.038.475-.733.614-.61.649-.183.023-.112-.369.292-.643-.012-.369-.456-.254-1.928.434-.318-.228-.588.093-1.044-.864-.485.3-.276-.125-.321-.357-.3.308-.177-.524-.675-.447-.578-.125-.106-.479.054-.334-.562.055-1.282-.822.112-.938-.376-.215-.424.549-.5-.469-.19-.832-.771-.61-.421-.6-.951-.665-.472-.334-.122-.379-1.07.72L8.516,60.6l-.524-.581-.723-.678-.546-.842-.662-.173L4.841,57.112l.006-.26.122-.4-.029-.411.135-.382-.305-.8.1-.626.527.1.167.536.944-.186.151-1.462-.588-.707.28-1.362.758-.511L5.5,47.568l-.347.01L3.688,46.89l-.652-.742-.466-.093-.3-.675.193-.572-.145-.893L1.789,43.7l-.18-.556L.883,42.97l-.61-.4.016-.334,1.173-.013-.01-.53.083-1.083-.08-.466.254-.655L.665,38.816l-.527.267L0,38.145l.3-.154-.193-.643L.3,36.917l.5-.093.119-.8.408-.353.575.1.925-.3.035-.251.691.254.581-.218.228.777.537-.048.453.167.546-.414.765-.845.954.364,1.089.111.81-.7,1.452-.427.919-.154.382-.235.447.145.225-1.031.039-.5.588-.231.029-.418.581-.164-.061-.463.116-.421-.279-1.365.263-1.044.209-.334-.822-.492.37-.308h1.5l1.121-.2.411.527.591-.01.366.251.3-.594-.44-.434.543-1.128,1.105-1.886.206-.514L21.05,24l.6.035.447.238.251.292.633-.308.668-.125.157-.553-.08-1.06.585-1.346.729.122.765-.334.234-.553.074-.472.588-.1.492.212.475-.116.026.424-.17.26.337.578-.01.283.729.492.341.749.212.289.427,0,.3-.094.553.581.289-.064.527.781.157.932.585,1.118-.048.54-.27.337.138.675-.633.871-.074.732.27.305.562.112.742.4,2.818.408.806.761,1.356.967.768.2-.006.437.331.215.553,1.851.8,1.067,1.442.357,1.455.119,1.706.308,1.555-.267,2.879.466.575.691,1.382.344,1.818.485.662-.177.328.453.472.148,1.462-.932,1.42-.733.909-.241.318-.273.826.112.649-.167,2.018-.174,1.5-.787,1.115-1.5.771-.427.305-.337L66,33.331l-1.079-1.3.617-1.683.948.029.369.305,1.613.071,1.166-1.137.292-.553,1.565-.218.832-.877,0-.44.283-.681.54-.543.736-.1.154-.447.431.086.9-.716.469.083.305-.161.752.186.585-.138.334-.392-.511-.99-.938-.559-.289-.434-.453-.058-.626-.382-1.06.193-.418.774-.671-.312-1.25.26-.337.376-.459-.334-.308-.655.392-.344.089-.938.215-.3-.1-.353.707-2.236.9.353.861.045.517-.376.662-.778.607-.145.273-.559-.321-.5.286-.851.186-.8.421-1.523.578-.691.039-.8-.19-.305-.089-.389-.6-.051-.3.042.039-.517.273-.218.546-.99.594-.18,1.176-.655,1.144-.28.736-.328,0,0,1.867.585.575-.257,1.359.678.231.408.488.382.424.594.177.63.948,1.179.039.447.935.964.132.739.373.154.1.681.63.623.7-.039.549-.353.861.392.466-.225,1.471.88.54-.186.135.639.581.594-.128.527.864.7.479-.251.713-.058,1.022-.463.334-.81.434-.331.4-.074.411-.565.794-.585.492.212.007.675.475.527-.138.6ZM68.709,87.687V87.32l-.148-.055h0l-.495.219-.44.128-.678.093-.094.164-.331.074-.533-.09-.129.016-.183.093v.183l-.145.074-.4-.019-.222.148v.218l.257.019-.145.238-.276.074-.79.553-.128.273.074.257-.094.241.094.495.129.312.074.44.549.241.44.2.626-.035.219.2L66.395,92v-.366l.366-.093.331-.019.02-.2.366-.459H67.7l.238-.112.074-.475.094-.643.273-.588.276-.386.257-.222-.055-.347Z" style="fill:#de2910"/><path d="M24.2,46.833l-3.759-2.789-3.759,2.789,1.436-4.513-3.759-2.789H19l1.436-4.513,1.436,4.513h4.647l-3.759,2.789Z" style="fill:#ffde00"/><path d="M31.73,52.328l-.9-1.267-1.458.484.9-1.267-.9-1.267,1.458.484.9-1.267v1.566l1.458.484-1.458.484Z" style="fill:#ffde00"/><path d="M31.73,37.09l-.9-1.267-1.458.484.9-1.267-.9-1.267,1.458.484.9-1.267v1.566l1.458.484-1.458.484Z" style="fill:#ffde00"/><path d="M36.643,47.642l-1.269-.907-1.237.952.453-1.513-1.269-.907,1.549-.028.453-1.513.5,1.5,1.549-.028-1.237.952Z" style="fill:#ffde00"/><path d="M34.737,41.455l-.027-1.581-1.481-.462,1.465-.515-.027-1.581.932,1.263,1.464-.515-.888,1.3.932,1.263-1.481-.462Z" style="fill:#ffde00"/></svg>