<svg xmlns="http://www.w3.org/2000/svg" viewBox="0 0 100 100"><title>icon-map-us</title><path d="M66.212,33.161c.059-.089.123-.162.142-.162s.035.073.035.162c0,.158,0,.162-.142.162H66.1Z" style="fill:#bf0a30;stroke:#bf0a30;stroke-linecap:round;stroke-linejoin:round;stroke-width:1.47869670391083px"/><path d="M61.636,72.542c-.43-.187-.7-.364-.554-.364.036,0,.08-.045.1-.1.029-.091.139-.1,1.235-.1.87,0,1.2.018,1.179.065a.131.131,0,0,0,.035.124c.042.042.022.113-.066.236-.161.225-.208.222-.289-.023a.61.61,0,0,0-.118-.232c-.088-.055-.615.219-.675.351a.429.429,0,0,1-.224.182c-.142.05-.237.028-.62-.138Z" style="fill:#fff"/><path d="M64.692,71.964a2.873,2.873,0,0,1,.458,0c.117.012.007.022-.245.022s-.348-.01-.213-.022Z" style="fill:#b22234;stroke:#b22234;stroke-linecap:round;stroke-linejoin:round;stroke-width:2.09119296073914px"/><path d="M65.539,72.47a.284.284,0,0,0-.2-.063.284.284,0,0,1-.211-.073.523.523,0,0,0-.189-.139c-.137-.063-.134-.066.081-.07a.585.585,0,0,0,.332-.1c.088-.08.128-.085.218-.029a.464.464,0,0,0,.2.069c.123,0,.1.117-.051.307-.085.1-.148.14-.173.1Z" style="fill:#fff"/><path d="M35.353,72.336a1.981,1.981,0,0,1-.472-.283,3.311,3.311,0,0,1,.779-.047h.779l-.1.157c-.161.254-.327.415-.424.412a3.158,3.158,0,0,1-.562-.24Z" style="fill:#fff;stroke:#b22234;stroke-linecap:round;stroke-linejoin:round;stroke-width:2.09119296073914px"/><path d="M4.194,55.148c-.205-.219-.1-.231.292-.035l.356.178H4.585A.444.444,0,0,1,4.194,55.148Z" style="fill:#fff"/><path d="M3.548,55.119c-.025-.1,0-.114.136-.114.092,0,.166.011.166.024a.585.585,0,0,0,.035.114c.027.07,0,.091-.136.091S3.569,55.2,3.548,55.119Z" style="fill:#fff"/><path d="M68.068,37.831c-.063-.142-.192-.386-.286-.544-.166-.279-.168-.293-.093-.572a1.25,1.25,0,0,0,.022-.6,1.015,1.015,0,0,1,.067-.658,2.415,2.415,0,0,0,.128-.757c0-.344.023-.421.107-.447.112-.036.172-.208.147-.421-.012-.1.033-.173.178-.272.309-.212.407-.182.407.124s.07.324.349.159a.273.273,0,0,0,.166-.258v-.159l1.717-.009c.945,0,1.75-.011,1.789-.014s.076.15.088.558c.016.54.01.57-.129.7a.454.454,0,0,0-.146.209.628.628,0,0,1-.317.579c-.2.1-.2.1-.186.426s.025.333.236.443l.219.114.191-.218a2.254,2.254,0,0,0,.318-.531.64.64,0,0,1,.416-.451c.21-.1.317-.124.391-.084a1.532,1.532,0,0,1,.539.982,8.582,8.582,0,0,0,.309.954,2,2,0,0,1,.174.7v.277l-3.343.015-3.343.015-.115-.258Z" style="fill:#fff"/><path d="M81.631,71.9c2.516,0,2.411.014,2.231-.307a1.113,1.113,0,0,0-.242-.289,5.434,5.434,0,0,1-.48-.487,6.533,6.533,0,0,1-.824-1.221,9.5,9.5,0,0,1-.958-2.129l-.133-.4L56.2,67.051l-25.022-.01.1.116c.452.537.528.6.8.712.212.083.285.133.321.222a.377.377,0,0,0,.141.164.261.261,0,0,1,.12.21,2.62,2.62,0,0,0,.207.521l.181.361v.447a1.122,1.122,0,0,0,.127.7,2.932,2.932,0,0,0,.533.666,1.674,1.674,0,0,0,.684.523,1.315,1.315,0,0,1,.322.163h0c.035.042.243.054.942.054h.9l.065-.111a1.409,1.409,0,0,0,.113-.293,1.493,1.493,0,0,1,.176-.374c.12-.179.161-.2.587-.376l.458-.183.161.128c.15.119.2.131.675.179.783.079,1.038.133,1.2.255a.468.468,0,0,1,.16.209,1.152,1.152,0,0,0,.248.334l.227.233H54.307l.311-.144a6.775,6.775,0,0,1,1.93-.519l.486-.041.567.2a7.707,7.707,0,0,0,.931.263c.351.063.371.062.561-.016l.2-.081.34.111a1.343,1.343,0,0,0,.376.089.2.2,0,0,0,.056-.1c.017-.063-.013-.087-.157-.127a.8.8,0,0,0-.3-.025c-.179.036-.453-.108-.436-.229.009-.066.067-.108.227-.165.213-.076.214-.076.3.007s.1.077.185.032a.4.4,0,0,1,.285-.014.319.319,0,0,1,.279.194.67.67,0,0,1,.09.255c0,.091.017.1.242.116a.505.505,0,0,1,.337.106c.047.045.077.067.255.078-.214.02-.263.064-.292.158a.079.079,0,0,1-.014.026.128.128,0,0,0-.126.1c-.013.064-.035.17.656.471a1.5,1.5,0,0,0,.537.171.476.476,0,0,0,.161-.03.532.532,0,0,0,.287-.239,1.344,1.344,0,0,1,.522-.294.893.893,0,0,1,.071.163c.042.128.089.244.2.261s.193-.084.282-.208c.049-.068.178-.25.054-.375,0,0-.008-.014-.011-.009a.127.127,0,0,0-.013-.109c-.026-.037-.045-.064-.252-.081.213-.009.222-.029.222-.073s.027-.081.095-.081a.267.267,0,0,0,.169-.082c.1-.11.157-.082.181.085l.02.138.664.011a5.491,5.491,0,0,0,.57,0,.507.507,0,0,0-.076.058.5.5,0,0,1-.262.074c-.182,0-.258,0-.278.1s.06.132.153.175a.471.471,0,0,1,.143.1.37.37,0,0,0,.3.124.294.294,0,0,1,.12.023.138.138,0,0,0,.1.056h.01c.07,0,.141-.049.229-.156.14-.171.184-.294.14-.387a.177.177,0,0,0-.172-.1.376.376,0,0,1-.14-.053.249.249,0,0,0-.218-.043.03.03,0,0,0-.008-.017,1.022,1.022,0,0,0-.378-.106,1.068,1.068,0,0,1-.5-.168.584.584,0,0,1-.174-.154.932.932,0,0,1,.061-.179c.056-.133.072-.144.192-.124s.131.021.04-.046c-.134-.1-.112-.139.081-.139.159,0,.179-.012.261-.165l.089-.165-.079-.148a.666.666,0,0,1-.079-.24c0-.24-.323.017-.384.306-.019.089-.047.127-.083.114a1.574,1.574,0,0,0-.194-.047.231.231,0,0,1-.186-.127c-.059-.131.028-.259.342-.5a1.9,1.9,0,0,0,.371-.4c.079-.124.147-.23.153-.237a.255.255,0,0,1,.111.034c.083.038.172.026.49-.064.379-.108.394-.109.59-.044a.9.9,0,0,0,.733-.015.359.359,0,0,1,.283-.081c.192,0,.205-.007.278-.152a3.235,3.235,0,0,0,.146-.364c.056-.172.087-.213.16-.213a.282.282,0,0,1,.153.051,3.17,3.17,0,0,1,.4.74c0,.03-.055.088-.121.127s-.121.086-.121.1c0,.069.213.025.494-.1a2.2,2.2,0,0,1,.528-.162,3.045,3.045,0,0,0,.551-.144,2.652,2.652,0,0,1,.658-.144c.186-.015.446-.046.576-.068a3.086,3.086,0,0,1,1.582.4,4.661,4.661,0,0,1,.528.293.938.938,0,0,0,.222.126c.167.066.321.229.324.342,0,.154.064.2.182.149A1.018,1.018,0,0,1,74,70.077a1.294,1.294,0,0,0,.866-.422c.165-.17.2-.186.374-.186.2,0,.247-.052.149-.15a.206.206,0,0,1-.018-.167c.024-.108.051-.128.229-.166a.994.994,0,0,1,.675.033,3.151,3.151,0,0,0,.389.151.535.535,0,0,1,.38.288.517.517,0,0,0,.292.259c.131.039.158.069.208.233a.354.354,0,0,0,.248.279.71.71,0,0,1,.29.249c.094.148.12.162.483.249l.384.093.063.165a1.806,1.806,0,0,0,.246.387c.145.176.183.254.183.374V71.9Zm-19.249.555a.332.332,0,0,1-.162.125c-.1.035-.168.027-.541-.135a3.608,3.608,0,0,1-.455-.229.3.3,0,0,0,.055-.094,7.982,7.982,0,0,1,1.136-.035c.1,0,.295,0,.491,0A1.172,1.172,0,0,0,62.382,72.453Zm1.157-.225a.444.444,0,0,1-.064.111c-.03.042-.052.07-.068.089-.008-.019-.018-.046-.031-.083a.919.919,0,0,0-.12-.249c.1,0,.177.009.228.016A.251.251,0,0,0,63.539,72.228Zm1.928-.164a.144.144,0,0,1,.042.021.624.624,0,0,0,.212.081.757.757,0,0,1-.092.134.581.581,0,0,1-.052.057.5.5,0,0,0-.242-.06.355.355,0,0,1-.12-.022.3.3,0,0,0-.053-.061.574.574,0,0,0,.258-.113C65.456,72.07,65.469,72.065,65.467,72.064ZM95.8,23.689H94.147l.153-.455h0a6.614,6.614,0,0,1,.261-.668c.091-.178.126-.212.218-.212s.123.029.185.182.1.188.237.225c.192.052.275.029.275-.076,0-.047.089-.139.233-.24a2.537,2.537,0,0,0,.31-.249.268.268,0,0,1,.167-.085,6.119,6.119,0,0,1,.928.372c.019.025.346,1.125.346,1.165A12.444,12.444,0,0,1,95.8,23.689ZM48.322,80.124a.575.575,0,0,1,.079.193.817.817,0,0,1-.38.3,1.886,1.886,0,0,1-.328-.2,1.664,1.664,0,0,0-1.041-.305.666.666,0,0,1-.545-.186,1.262,1.262,0,0,0-.541-.248,4.861,4.861,0,0,1-.706-.252c-.368-.166-.406-.194-.514-.38a2.138,2.138,0,0,1-.188-.56c-.07-.349-.077-.362-.245-.475s-.278-.286-.212-.365a.61.61,0,0,0,.049-.236c.01-.164,0-.2-.095-.274s-.106-.085-.045-.265l.062-.181h2.283c1.256,0,2.283.014,2.283.03s-.072.283-.16.592a1.98,1.98,0,0,0-.086,1.459c.069.243.153.616.187.829A2.077,2.077,0,0,0,48.322,80.124Zm20.6-46.985c-.057.148-.089.184-.168.184-.054,0-.1-.023-.1-.051,0-.148.091-.352.167-.376C68.966,32.851,69,32.934,68.922,33.139Zm-35.43.174-32.028.01.023-.152c.013-.083.036-.316.051-.516A2.883,2.883,0,0,1,1.6,32.2c.018-.048.264-.447.547-.888a15.639,15.639,0,0,0,1.331-2.567l.09-.263,27.755-.01,27.755-.01-.092.164a1.169,1.169,0,0,1-.173.238c-.045.04-.227.221-.407.4a1.712,1.712,0,0,1-.389.329.876.876,0,0,0-.274.167l-.21.167.087.093a.708.708,0,0,0,.725.059,9.106,9.106,0,0,0,1.169-.545c.162-.092.183-.1.269-.039l.093.061-.158.236c-.272.407-.253.6.048.473.173-.072.469-.011.505.105s.129.089.266-.048a.752.752,0,0,1,.284-.164c.205-.055.561-.272.561-.341,0-.093.1-.137.43-.194a.943.943,0,0,0,.485-.181,1.937,1.937,0,0,1,.371-.214c.15-.063.213-.112.213-.167a.758.758,0,0,1,.283-.419.412.412,0,0,0,.143-.1c.062-.069.123-.079.44-.077.285,0,.344.012.262.042a.189.189,0,0,0-.129.178.953.953,0,0,1-.167.328.532.532,0,0,0-.144.341c0,.172.089.239.171.127a1.9,1.9,0,0,1,.239-.221c.155-.125.195-.142.233-.1a.465.465,0,0,0,.238.075.775.775,0,0,1,.659.363,1.719,1.719,0,0,0,.253.347c.165.17.167.171.39.146a1.256,1.256,0,0,0,.284-.056c.036-.019.118,0,.209.055a.26.26,0,0,0,.288.037.834.834,0,0,1,.2-.05,1.452,1.452,0,0,0,.351-.245,1.332,1.332,0,0,1,1-.384,1.861,1.861,0,0,0,.793-.2,1.462,1.462,0,0,1,.433-.146.8.8,0,0,1,.054.325l.012.3.174.058c.162.054.206.05.627-.053a2.484,2.484,0,0,0,.517-.166.241.241,0,0,1,.132-.055c.059,0,.068.053.068.4v.4l.213.172.314.251.1.08-.182-.03a2.561,2.561,0,0,0-1.144.093c-.186.074-.2.074-.532.007a3.944,3.944,0,0,0-.657-.07c-.314,0-.32,0-.44.141s-.138.143-.506.183c-.55.059-.625.09-.688.283a.642.642,0,0,1-.128.228c-.071.064-.081.062-.179-.029l-.1-.1-.265.141-.265.141-.061-.091c-.1-.156-.186-.112-.3.162a3.456,3.456,0,0,0-.157.455,4.534,4.534,0,0,1-.22.587l-.171.385ZM83.711,81a5.462,5.462,0,0,1-.647.228.038.038,0,0,1-.038-.039A.652.652,0,0,1,83.177,81c.138-.134.166-.145.314-.121S83.75,80.961,83.711,81ZM99.022,28.465l-.169.2c-.194.232-.338.27-.381.1-.02-.08-.051-.1-.147-.1-.07,0-.132.025-.145.06a.9.9,0,0,1-.221.2c-.2.147-.248.254-.138.345.057.047.056.106-.006.334a.089.089,0,0,1-.176-.027c0-.157-.043-.226-.14-.226-.067,0-.11-.043-.164-.162-.082-.181-.119-.193-.258-.086l-.1.074.09.122c.077.1.083.136.042.213a.671.671,0,0,0-.021.345c.024.224.016.271-.067.4-.06.092-.126.145-.182.145-.161,0-.216.048-.241.207s-.048.17-.347.343a1.1,1.1,0,0,1-.369.163,1.216,1.216,0,0,1-.121-.074c-.065-.045-.095-.027-.249.149l-.175.2.052.172c.047.156.045.179-.025.241s-.076.125-.076.284a7.364,7.364,0,0,1-.191,1.139l-.021.091H90.246c-3.195,0-4.832-.014-4.832-.04h0c0-.022-.056-.04-.124-.04a.442.442,0,0,1-.331-.138.5.5,0,0,1-.03-.193c0-.135.03-.176.327-.445a1.9,1.9,0,0,0,.442-.522,6.942,6.942,0,0,1,.834-1.211,1.756,1.756,0,0,1,.4-.327,2.83,2.83,0,0,1,1.012-.24,1.756,1.756,0,0,0,.474-.079c.125-.043.406-.126.624-.184s.433-.123.477-.143.727-.2,1.518-.407,1.45-.378,1.467-.388a.653.653,0,0,0,.031-.26v-.24h6.484Zm-5.58,10.07-.229.224a2.424,2.424,0,0,1-.643.43c-.423.21-.591.245-.8.165-.1-.038-.126-.022-.361.223-.259.271-.4.331-.438.186a.189.189,0,0,1,.078-.17.185.185,0,0,0,.072-.21c-.018-.083-.012-.11.02-.09a2.744,2.744,0,0,0,.925-.653c.188-.177.326-.279.348-.257s.087.01.162-.03a2.359,2.359,0,0,1,.389-.136c.253-.067.078-.07-4.483-.073l-4.518,0H80.322l-.185.132a5.931,5.931,0,0,0-.539.486,2.6,2.6,0,0,1-.4.354,1.15,1.15,0,0,0-.262.162.9.9,0,0,1-.292.162,1.733,1.733,0,0,0-.411.226c-.186.124-.427.278-.535.342a4.3,4.3,0,0,0-.6.537l-.405.421-.335.069a3.741,3.741,0,0,0-.638.2,2.624,2.624,0,0,1-.447.16c-.129.022-.16.007-.314-.15l-.171-.174-.293.036-.293.036-.287-.165a1.828,1.828,0,0,0-.334-.165c-.144,0,.092-.593.308-.775.111-.093.115-.11.1-.372-.016-.244-.007-.286.075-.373a.314.314,0,0,1,.142-.1c.055,0,.1-.127.1-.3,0-.125.143-.434.2-.434a.227.227,0,0,1,.1.067.139.139,0,0,0,.175.03c.115-.04.153-.153.11-.324l-.018-.071a.107.107,0,0,0,.1-.107v-.277a2.1,2.1,0,0,0-.182-.741,8.442,8.442,0,0,1-.3-.939A1.615,1.615,0,0,0,73.9,35.05c-.125-.067-.274-.021-.489.082a.743.743,0,0,0-.47.508,2.155,2.155,0,0,1-.3.5l-.135.154-.144-.075c-.165-.086-.165-.086-.179-.353a.94.94,0,0,1,0-.25c.007-.017.052-.038.123-.072a.735.735,0,0,0,.378-.667.52.52,0,0,1,.111-.139c.181-.168.179-.25.163-.781-.014-.473-.042-.572-.1-.628a.134.134,0,0,0-.1-.034l-.087,0c.042-.008.052-.018.047-.031a.169.169,0,0,0-.1-.083.378.378,0,0,1-.141-.343.207.207,0,0,1,.145-.041c.155,0,.153-.074-.006-.225a1.215,1.215,0,0,1-.2-.271c-.066-.128-.1-.152-.209-.152a2.2,2.2,0,0,1-.945-.346c-.291-.181-.316-.189-.519-.165a.4.4,0,0,1-.381-.1.759.759,0,0,0-.211-.121,2.967,2.967,0,0,0-.533.339c-.072.056-.089.178-.045.339.017.063.073.1.18.133.3.081.258.178-.106.247-.38.072-.473.234-.4.694h0l.024.144H69.26a.108.108,0,0,0-.107.108v.159c0,.068-.016.107-.113.165a.676.676,0,0,1-.173.083.558.558,0,0,1-.013-.149c0-.137-.016-.285-.13-.346s-.263.008-.445.132c-.149.1-.244.2-.224.374s-.028.291-.072.305c-.168.053-.178.216-.182.549a2.294,2.294,0,0,1-.121.722,1.123,1.123,0,0,0-.072.713,1.139,1.139,0,0,1-.02.556.61.61,0,0,0,.1.656c.092.155.217.394.28.533l.115.258a.108.108,0,0,0,.1.064h.059c.012.039.066.21.126.393l.113.348-.1.613a2.94,2.94,0,0,1-.226.856,1.7,1.7,0,0,0-.148.428c-.023.164-.053.208-.285.4a2.866,2.866,0,0,1-.389.285,1.353,1.353,0,0,0-.25.176c-.168.154-.234.168-.369.079a.871.871,0,0,0-.3-.1l-.186-.025L66.1,41.29a2.047,2.047,0,0,0-.269-.565,1.284,1.284,0,0,1-.241-.952,2.349,2.349,0,0,0-.1-.756,2.268,2.268,0,0,1-.1-.445,2.145,2.145,0,0,0-.026-.281l-.025-.152H.148v.1a.618.618,0,0,0,.094.253,4.89,4.89,0,0,1,.351.871,1.869,1.869,0,0,1-.1,1.021,1.2,1.2,0,0,0-.121.445,4.357,4.357,0,0,1-.085.511.488.488,0,0,0,.041.45,4.065,4.065,0,0,0,.244.45,4.039,4.039,0,0,1,.251.471h0l.106.243H90.979L91,42.865c.123-.535.136-.619.1-.655a2.382,2.382,0,0,1-.041-.567c0-.464-.013-.549-.091-.7-.07-.133-.1-.162-.15-.132a.72.72,0,0,1-.417.014c-.014-.014.055-.1.155-.186a.55.55,0,0,0,.181-.237c0-.085.049-.1.155-.041a2.068,2.068,0,0,0,.725-.177l.657-.214.6-.448a9.91,9.91,0,0,0,.794-.648l.2-.2-.211-.07Zm-25.275-.748h0c-.065-.145-.2-.394-.291-.555-.147-.247-.147-.247-.081-.489a1.365,1.365,0,0,0,.024-.649.913.913,0,0,1,.063-.6,2.517,2.517,0,0,0,.134-.792,1.3,1.3,0,0,1,.032-.346c.164-.052.253-.268.221-.537,0-.038-.009-.074.132-.17a.631.631,0,0,1,.22-.117.422.422,0,0,1,.017.152c0,.133.009.28.118.342s.226.009.393-.09a.377.377,0,0,0,.219-.351v-.052l1.61-.008c.586,0,1.489-.009,1.735-.013a3.044,3.044,0,0,1,.033.452c.015.515.011.519-.094.616-.018.017-.18.17-.18.288a.523.523,0,0,1-.256.482c-.261.125-.266.185-.248.529s.037.4.294.533l.219.114a.108.108,0,0,0,.131-.025l.191-.218a2.336,2.336,0,0,0,.336-.561.539.539,0,0,1,.363-.394c.159-.076.258-.1.294-.086a1.466,1.466,0,0,1,.486.914,8.728,8.728,0,0,0,.314.968,1.915,1.915,0,0,1,.166.658v.17l-6.509.03ZM84.625,80.5a1.783,1.783,0,0,1-.46.357.08.08,0,0,1-.062-.033h0A1.561,1.561,0,0,1,84.625,80.5Zm12.956-50.45c-.08.054-.127.032-.2-.094-.064-.109-.067-.133-.016-.184a.13.13,0,0,1,.126-.032C97.573,29.776,97.643,30.011,97.581,30.053Zm.811-1.082c.042.058.041.081-.007.129a.254.254,0,0,0-.059.157c0,.122-.118.133-.219.021-.064-.071-.065-.087-.007-.2C98.18,28.925,98.32,28.873,98.392,28.971ZM89.5,47.884a2.108,2.108,0,0,0-.024.494,1.125,1.125,0,0,1-.078.592c-.1.269-.277.477-.313.377h0a1.556,1.556,0,0,1,.01-1.26l.11-.353h.338ZM84.7,79.565c-.169,0-.22.017-.254.082a.757.757,0,0,1-.339.2s-.05-.023-.106-.051h0c-.109-.055-.132-.114-.2-.515a1.682,1.682,0,0,0-.619-.97c-.235-.149-.66-.214-.7-.108s-.331-.332-.386-.587a1.442,1.442,0,0,0-.432-.707c-.1-.066-.106-.065-.208.055-.133.156-.224.127-.328-.1l-.076-.171h4.691v.343a2.62,2.62,0,0,0,.047.518c.068.254.02.454-.124.513-.109.045-.117.065-.141.359a1.968,1.968,0,0,0,.013.471c.036.15.029.17-.107.324A.991.991,0,0,1,84.7,79.565Zm1.119-.828a.512.512,0,0,1-.051.243,3.716,3.716,0,0,0-.192.459,1.249,1.249,0,0,1-.455.678,1.945,1.945,0,0,1-.364.3c-.026,0,.065-.105.2-.233h0A2.711,2.711,0,0,0,85.663,79C85.8,78.619,85.812,78.591,85.815,78.737ZM51.508,57.407c19.458,0,35.377.014,35.376.03s-.025.131-.054.253l-.052.223-.258.029a5.348,5.348,0,0,0-.543.1c-.281.068-.291.075-.609.426a2.13,2.13,0,0,0-.625,1.229c-.005.339-.045.5-.13.528a.346.346,0,0,0-.141.182c-.051.127-.089.162-.2.183s-.154.064-.236.214a1.5,1.5,0,0,1-.231.31,2.7,2.7,0,0,0-.287.354,1.121,1.121,0,0,1-.269.29,1.438,1.438,0,0,0-.27.223c-.131.135-.187.165-.311.165a.281.281,0,0,0-.176.04c-.017.027-11.125.04-33.194.04H16.131l-.373,0-.273,0L14.391,61.6h0c-.972-.553-1.094-.633-1.106-.731s.019-.136.132-.229c.259-.214.229-.225-.766-.3-.711-.052-3.937-.48-3.986-.529a7.736,7.736,0,0,1-.042-.78l-.02-.759-.152-.246A1.548,1.548,0,0,1,8.3,57.74a.683.683,0,0,0-.1-.186l-.1-.147H51.508Zm38.93-5.05c.041.109.038.111-.1.111-.125,0-.138.009-.1.061s-.695.061-6.613.061H3.337l.06-.14h0c.093-.217.078-.405-.038-.48a.313.313,0,0,1-.125-.225,2.927,2.927,0,0,0-.3-.62,4.314,4.314,0,0,1-.579-1.317,2.316,2.316,0,0,0-.357-.8,1.139,1.139,0,0,1-.2-.383c-.039-.21.032-.567.113-.567a.519.519,0,0,0,.323-.244c.026-.079.231-.08,38.324-.08h38.3v0l3.686.007,5.576.01,0,.292c0,.212.021.312.069.366a.18.18,0,0,1,.042.169c-.017.065,0,.106.042.132.128.072.078.155-.1.155-.146,0-.162.01-.162.1,0,.071.042.128.141.192.081.052.141.125.142.17a.355.355,0,0,0,.1.182.572.572,0,0,1,.121.211c.022.093,0,.121-.12.2l-.145.09.095.095.095.095.263-.08a2.116,2.116,0,0,1,.329-.08c.04,0,.136.118.238.293a4.036,4.036,0,0,0,.241.374,1.564,1.564,0,0,1,.165.344,4.08,4.08,0,0,0,.588,1.052A.984.984,0,0,1,90.439,52.357ZM4.947,55.315a.108.108,0,0,1-.105.083H4.585a.546.546,0,0,1-.47-.177h0c-.069-.074-.185-.2-.107-.3s.192-.07.526.1l.356.178A.108.108,0,0,1,4.947,55.315Zm-.989-.3c-.007-.123-.174-.123-.274-.123a.258.258,0,0,0-.221.07.2.2,0,0,0-.02.18.281.281,0,0,0,.306.2.257.257,0,0,0,.228-.076.166.166,0,0,0,.009-.161A.783.783,0,0,1,3.958,55.019Zm-.209.106a.16.16,0,0,1-.085-.013c.032,0,.073,0,.1,0l0,.01ZM6.841,57.3a.21.21,0,0,1-.061.266.177.177,0,0,1-.1.029.269.269,0,0,1-.186-.087,1.491,1.491,0,0,1-.207-.264c-.062-.1-.114-.216-.038-.292a.135.135,0,0,1,.127-.033A.964.964,0,0,1,6.841,57.3Zm-.527.959c.163.275.163.3.163.327a.13.13,0,0,1-.086.124.148.148,0,0,1-.05.008.315.315,0,0,1-.219-.118A.819.819,0,0,1,6,58.28l-.034-.195a.108.108,0,0,1,.2-.074Z" style="fill:#b22234"/><path d="M47.388,72.006h6.6l-.152.176a3.19,3.19,0,0,1-.438.384c-.157.114-.451.36-.653.546a5.278,5.278,0,0,1-1.566,1,10.561,10.561,0,0,0-1.077.594c-.605.4-.7.445-.864.446-.1,0-.193.088-.351.315s-.254.314-.353.314a.376.376,0,0,0-.378.181c-.047.088-.034.131.066.211s.117.136.085.284c-.028.126-.07.178-.136.169s-1.078-.021-2.279-.029h0l-2.183-.016-.093-.142a.726.726,0,0,0-.282-.221,2.174,2.174,0,0,1-.747-.937,1.182,1.182,0,0,0-.379-.451c-.125-.083-.228-.194-.228-.247a5.962,5.962,0,0,0-.306-.808,7.453,7.453,0,0,1-.345-.921.573.573,0,0,0-.123-.279.238.238,0,0,1-.084-.153.576.576,0,0,0-.167-.251l-.167-.167Zm38.037,3.087c-.068-.133-.285-.515-.483-.849a7.344,7.344,0,0,1-.4-.739,1.672,1.672,0,0,0-.279-.4,1.839,1.839,0,0,1-.381-.713c-.124-.386-.158-.441-.258-.415-.063.016-1.035.03-2.161.03H79.417v.33a2.241,2.241,0,0,1-.062.53,1.716,1.716,0,0,0,.16,1.245c.1.276.16.305.21.106.019-.076.05-.178.069-.228s-.012-.108-.114-.147c-.155-.059-.191-.141-.089-.2a.887.887,0,0,1,.341,0c.2.027.291.069.314.142a1.852,1.852,0,0,1-.442.842l-.116.126.328.361a3.761,3.761,0,0,1,.471.641,4.708,4.708,0,0,0,.35.558h0l.207.278h4.67v-.157A4.627,4.627,0,0,0,85.425,75.093Zm-4.267-8.274c0-.091-.024-.3-.048-.473a2.3,2.3,0,0,1,.123-.973c.092-.366.185-.808.206-.981a1.931,1.931,0,0,1,.193-.589.716.716,0,0,0,.121-.358c-.021-.054.113-.218.378-.464.326-.3.407-.409.393-.522l-.017-.142-33.372.01c-18.355.006-33.378.017-33.386.024s1.246.789,2.962,1.8l1.463.862.77.145c.423.08,1.311.2,1.972.264s1.331.155,1.488.2a7.485,7.485,0,0,0,.887.145c.331.036.643.077.694.091.077.021.1-.063.16-.5a4.34,4.34,0,0,1,.091-.552c.013-.013.546.056,1.185.152s1.42.206,1.735.244c.529.064.586.083.747.253a1.221,1.221,0,0,1,.242.409c.055.184.115.248.328.352a.65.65,0,0,1,.315.27,1.545,1.545,0,0,0,.171.3h0l.116.157,25.044.023,25.044.023ZM45.7,52.714H3.274l-.091.382c-.088.368-.087.387.023.537a.444.444,0,0,0,.381.181,2.941,2.941,0,0,1,.718.236,2.342,2.342,0,0,0,.611.209c.189,0,.406.25.672.773a1.033,1.033,0,0,0,.88.625c.292.043.4.157.466.475.027.136.012.2-.055.235-.127.071-.027.122.323.163.254.03.3.059.413.241a3.477,3.477,0,0,0,.271.378h0l.146.172h78.91l.038-.172a2.884,2.884,0,0,1,2.061-1.613c.191.031.208.019.4-.279.273-.427.315-.551.126-.38-.123.112-.15.118-.179.043-.023-.06-.109-.089-.265-.089-.264,0-.273-.027-.139-.42.1-.307.078-.438-.09-.438-.086,0-.116-.037-.116-.145,0-.142,0-.143.169-.057a.68.68,0,0,0,.641.006c.154-.064.215-.139.3-.364a.58.58,0,0,1,.242-.347c.106-.048.14-.108.14-.246v-.182l-1.073.038C88.6,52.7,69.028,52.714,45.7,52.714ZM1.033,43.14a2.236,2.236,0,0,1,.049.542l0,.442.3.339.3.339-.118.421a1.849,1.849,0,0,0,.14,1.553c.148.231.243.32.369.345.175.035.24.153.242.436h0V47.7l2.156-.038c1.186-.021,20.383-.038,42.659-.038,36.179,0,40.494-.009,40.417-.087a1.547,1.547,0,0,0-.48-.186c-.533-.135-.582-.269-.08-.223.2.018.445.05.543.07.145.03.183.016.207-.074a.3.3,0,0,0-.049-.217.416.416,0,0,1-.078-.2.42.42,0,0,0-.137-.222,1.255,1.255,0,0,1-.237-.39.943.943,0,0,1-.029-.658c.062-.345.059-.409-.019-.5s-.078-.122.037-.361c.175-.362.613-.717.613-.5a.316.316,0,0,1-.078.157,1.448,1.448,0,0,0-.208.528c0,.027.049.049.108.049.088,0,.115.059.149.328.037.294.029.336-.079.408a.279.279,0,0,0-.118.23c0,.144.005.146.085.041s.087-.106.2-.007.113.1,0,.246c-.152.193-.142.326.042.568.15.2.165.2.453.173s.3-.027.448.185a.956.956,0,0,0,.291.28.213.213,0,0,1,.141.209c0,.126.025.144.194.144.232,0,.373-.176.4-.5a1.268,1.268,0,0,1,.113-.4,1.179,1.179,0,0,0,.095-.452,2.4,2.4,0,0,0-.289-1.054.935.935,0,0,1-.517-.429c-.173-.451-.36-.766-.474-.8a.736.736,0,0,1-.335-.593c.027-.165.116-.165.181,0a1.718,1.718,0,0,0,1.178.767l.259.035-.037.293L90,44.786l.144-.132a.628.628,0,0,0,.18-.4,1.152,1.152,0,0,1,.182-.469,3.21,3.21,0,0,0,.368-.719c0-.012-20.224-.021-44.943-.021C3.147,43.04.988,43.045,1.033,43.14Zm-.964-5.1h0Zm65.183-.061a2.76,2.76,0,0,1,.253-.9c.049-.091.047-.226-.007-.541-.071-.414-.07-.423.079-.648s.184-.376.1-.5a2.728,2.728,0,0,1,.361-1.344c.143-.306.26-.57.26-.586s-.058-.029-.129-.029c-.094,0-.187.09-.343.333a3.222,3.222,0,0,1-.358.467.466.466,0,0,0-.144.2.866.866,0,0,1-.194.277c-.2.22-.378.239-.378.041a3.617,3.617,0,0,1,.487-1.033.727.727,0,0,0,.148-.181c.054-.1-.938-.1-31.944-.1h-32l-.038.152a.318.318,0,0,0,.013.221c.264.355.258.325.136.646a2.01,2.01,0,0,0-.113.7,2.138,2.138,0,0,1-.29,1.065,2.438,2.438,0,0,1-.594.961,1.4,1.4,0,0,0-.4.576c-.051.155-.092.29-.092.3s14.673.018,32.607.018C60.537,38.06,65.278,38.048,65.252,37.98Zm31.582-2.668c-.031,0-.016.045.034.1a.964.964,0,0,1,.149.255c.052.137.039.171-.115.3a.574.574,0,0,1-.441.144l-.268,0-.31-.461c-.331-.494-.419-.563-.582-.461-.087.055-.123.038-.225-.105-.131-.185-.123-.268.069-.647l.11-.219-.179-.279c-.148-.231-.168-.3-.116-.4l.063-.118H90.479c-2.5,0-4.658-.015-4.8-.034-.243-.033-.254-.028-.322.154-.059.157-.056.211.014.319.1.155.112.454.019.512a1.009,1.009,0,0,1-.243.077.448.448,0,0,0-.291.225c-.258.427-.388.532-.689.56a2.329,2.329,0,0,0-.616.178c-.33.151-.332.151-.528.046a2.425,2.425,0,0,0-1.588.137c-.741.249-.759.267-.665.635.053.207.112.31.2.342.147.056.3.382.221.482-.029.038-.136.2-.238.351a2.7,2.7,0,0,1-.4.467l-.215.185H86.7c4.18,0,6.377.02,6.4.058.048.078.024.085.566-.165.265-.122.575-.253.689-.291a.932.932,0,0,0,.363-.264.5.5,0,0,1,.265-.2,1.071,1.071,0,0,0,.359-.146c.206-.121.247-.173.234-.3s.029-.18.177-.282c.226-.155.266-.141.315.1l.037.183.157-.15a2.542,2.542,0,0,1,.86-.443q.182,0,.041-.4C97.074,35.508,96.932,35.312,96.834,35.312Zm2.949-8.444c-.235-.311-.47-.413-.47-.2,0,.157-.069.149-.282-.03a.415.415,0,0,1-.176-.418c0-.373-.079-.456-.454-.476l-.311-.017-.294-.973-.294-.973-.182,0-1.695.014-1.512.011-.1.294a1.383,1.383,0,0,0-.065.61,1.052,1.052,0,0,1-.05.514,1.265,1.265,0,0,0,.012.938c.081.09.085.138.027.33a3.842,3.842,0,0,1-.234.543,1.886,1.886,0,0,0-.206.719c-.039.4-.041.4-.208.4-.188,0-.39.09-.39.174h0c0,.035,1.143.055,3.089.055h3.089l.246-.229a1.6,1.6,0,0,1,.345-.261,1.188,1.188,0,0,0,.33-.648A1.186,1.186,0,0,0,99.783,26.869Zm-68.39,1.517c16.766,0,27.764-.021,27.764-.052a.966.966,0,0,1,.223-.263,4.461,4.461,0,0,1,1.1-.6c1.078-.471,1.137-.5,1.137-.608s-.307-.111-.4,0-.152.108-.267-.086c-.1-.169-.11-.172-.572-.172a1.323,1.323,0,0,0-.506.057c-.067.109-.2.057-.286-.114-.049-.094-.114-.172-.144-.172a.95.95,0,0,0-.27.192c-.373.334-.56.386-.922.26-.117-.041-.18-.1-.18-.172s-.041-.109-.143-.109c-.158,0-.372-.181-.372-.315,0-.1-.026-.106-.169-.017-.091.057-.17.045-.443-.065a4.624,4.624,0,0,1-.595-.3,1.065,1.065,0,0,0-.416-.164.583.583,0,0,1-.261-.068c-.087-.054-.138-.048-.257.03-.082.054-.149.135-.149.182,0,.064-.073.085-.292.085-.239,0-.3-.02-.32-.109-.032-.123-.176-.175-.49-.176-.152,0-.215-.026-.215-.087s-.069-.086-.277-.086c-.192,0-.3-.031-.366-.1a3.223,3.223,0,0,1-.273-1.07.4.4,0,0,0-.364-.375c-.118,0-.14.035-.172.266a4.135,4.135,0,0,0-.036.451v.185L50.126,24.8c-2.885-.028-6.019-.114-8.067-.222-1.6-.084-3.76-.242-3.912-.286-.047-.014-.923-.1-1.946-.2s-2.35-.236-2.948-.311c-.824-.1-1.107-.12-1.167-.071s-3.518.071-13.424.087c-13.011.021-13.347.024-13.447.13A.355.355,0,0,1,5,24.035c-.151,0-.149.224,0,.416s.141.19,0,.365A6.751,6.751,0,0,0,4.6,25.855c-.164.494-.373,1.049-.465,1.232a11.146,11.146,0,0,0-.5,1.273h0C3.63,28.375,16.123,28.386,31.393,28.386Z" style="fill:#fff"/><path d="M7.745,19.485c-.116-.229-.075-.331.115-.283a.557.557,0,0,0,.283-.021c.238-.09.353.034.269.291-.037.114-.087.246-.11.3-.049.1-.3.157-.3.067a.13.13,0,0,1,.059-.1.168.168,0,0,0,.059-.131c0-.082-.015-.08-.118.013C7.871,19.742,7.878,19.745,7.745,19.485Zm36.738,4.886c-3.461-.108-4.821-.208-9.592-.709-1.234-.13-2.376-.247-2.538-.261-.9-.077-5.4-.754-7.644-1.151-2.189-.387-6.551-1.289-8.854-1.831-1.27-.3-5.5-1.4-6.552-1.712a2.664,2.664,0,0,0-.635-.136c-.11.042-.091.19.078.605.144.355.147.386.064.615A2.743,2.743,0,0,0,8.8,20.977c.045.261.053.268-.284-.251l-.173-.267.129-.1c.134-.109.172-.317.069-.381-.077-.048-.413.287-.413.412s-.265.08-.885-.144a3.584,3.584,0,0,1-1.46-.831,2.017,2.017,0,0,0-.429-.351c-.079,0-.2.277-.293.692a.758.758,0,0,0,.031.577,1.71,1.71,0,0,1,.066.831,2.219,2.219,0,0,0,.2,1.332c.146.207.143.216-.081.238-.174.017-.193.038-.21.236-.014.17.008.232.1.282a.22.22,0,0,1,.121.153c0,.049.06.112.133.142l.133.053-.135,0a1.155,1.155,0,0,0-.369.123c-.262.134-.295.261-.136.53.093.157.091.18-.034.446-.072.154-.273.668-.447,1.142S4,26.995,3.85,27.352a4.657,4.657,0,0,0-.271.77.321.321,0,0,1-.05.177,1.886,1.886,0,0,0-.156.351,18.091,18.091,0,0,1-1.289,2.467c-.548.911-.562.942-.6,1.387a4.039,4.039,0,0,1-.093.626.7.7,0,0,0,.056.646c.1.15.1.194.033.424a4.491,4.491,0,0,0-.118.689,3.848,3.848,0,0,1-.867,2.028c-.371.414-.575.853-.464,1a1.189,1.189,0,0,1,.113.241c.035.1.145.372.245.611a1.7,1.7,0,0,1,.068,1.353,6,6,0,0,0-.186.817l-.073.48.257.494c.141.272.3.581.346.686.064.138.131.194.239.2s.116.016.047.034c-.089.023-.1.1-.1.549V43.9l.3.359.3.359-.093.373a1.734,1.734,0,0,0,.542,2c.129.061.165.124.18.308.017.205-.008.255-.221.45s-.24.252-.24.47a1.123,1.123,0,0,0,.175.555,7.844,7.844,0,0,1,.407.953,11.619,11.619,0,0,0,.534,1.223,4.193,4.193,0,0,1,.3.655.245.245,0,0,0,.089.154.557.557,0,0,1,0,.59.778.778,0,0,0-.086.192c0,.024,10.211.044,22.693.044h22.7v-28C48.556,24.5,48.669,24.5,44.483,24.371Z" style="fill:#002868"/><path d="M12.729,20.861h1.439L13,21.707l.445,1.369-1.165-.846-1.165.846.445-1.369L10.4,20.861h1.439l.445-1.369Zm7.66-1.369-.445,1.369H18.5l1.165.846-.445,1.369,1.165-.846,1.165.846-.445-1.369,1.165-.846H20.834Zm8.1,0-.445,1.369H26.61l1.165.846-.445,1.369,1.165-.846,1.165.846-.445-1.369,1.165-.846H28.939Zm12.6,4.947-.445-1.369-.445,1.369H38.767l1.165.846-.445,1.369,1.165-.846,1.165.846-.445-1.369,1.165-.846Zm-8.1,0-.445-1.369L32.1,24.439H30.662l1.165.846-.445,1.369,1.165-.846,1.165.846-.445-1.369,1.165-.846Zm-8.1,0-.445-1.369L24,24.439H22.557l1.165.846-.445,1.369,1.165-.846,1.165.846-.445-1.369,1.165-.846Zm-8.1,0-.445-1.369-.445,1.369H14.452l1.165.846-.445,1.369,1.165-.846,1.165.846-.445-1.369,1.165-.846Zm-8.1,0L8.232,23.07l-.445,1.369H6.347l1.165.846-.445,1.369,1.165-.846,1.165.846-.445-1.369,1.165-.846ZM4.624,27.864,4.179,26.5l-.445,1.369H2.3l1.165.846-.445,1.369,1.165-.846,1.165.846L4.9,28.71l1.165-.846Zm8.1,0L12.284,26.5l-.445,1.369H10.4l1.165.846-.445,1.369,1.165-.846,1.165.846L13,28.71l1.165-.846Zm8.1,0L20.389,26.5l-.445,1.369H18.5l1.165.846-.445,1.369,1.165-.846,1.165.846-.445-1.369,1.165-.846Zm8.1,0L28.494,26.5l-.445,1.369H26.61l1.165.846-.445,1.369,1.165-.846,1.165.846-.445-1.369,1.165-.846Zm17.45,0H44.95L44.505,26.5l-.445,1.369H42.621l1.165.846-.445,1.369,1.165-.846,1.165.846-.445-1.369Z" style="fill:#fff"/></svg>