<svg xmlns="http://www.w3.org/2000/svg" xmlns:xlink="http://www.w3.org/1999/xlink" viewBox="0 0 100 100"><defs><radialGradient id="a" cx="28.952" cy="47.441" r="8.277" gradientTransform="translate(-40.85 -50.474) scale(1.878 1.878)" gradientUnits="userSpaceOnUse"><stop offset="0" stop-color="#339bcf"/><stop offset="1" stop-color="#03498e"/></radialGradient></defs><title>icon-client-ctg</title><path d="M100,41.533l-.465,2.5a4.046,4.046,0,0,1-.739.23,55.165,55.165,0,0,0-6.005.664,6.133,6.133,0,0,0-5.144,5.039c-.344,1.942.141,3.784,2.154,4.63a3.533,3.533,0,0,0,4.924-1.584l-2.534-.4c.445-3.014,1.38-3.3,7.8-2.342l-2.1,8.948c-2.519.148-4.848.441-7.17.386-3.567-.084-6.871-.953-8.533-4.6-1.348-2.956-.3-7.214,2.575-9.877C89.055,41.151,94.213,40.556,100,41.533Z" style="fill:#19171c"/><path d="M65.683,41.569c.2,2.113-.59,2.684-2.511,2.821a21.367,21.367,0,0,0-6.826,1.552A5.289,5.289,0,0,0,53.7,52.447c.87,2.5,2.956,2.723,5.177,2.59,1.131-.068,2.259-.167,3.4-.253-.315,4.379-.672,4.733-4.845,4.848-.351.01-.7.026-1.055.005-3.6-.213-6.9-1.166-8.409-4.8-1.5-3.606-.063-6.869,2.411-9.405C54.61,41.09,59.952,40.465,65.683,41.569Z" style="fill:#19171c"/><path d="M68.335,59.637l3.8-15.231-4.1-.184c-.166-1.373-.353-2.578,1.54-2.583,4.3-.012,8.607,0,12.969,0,.149,2.076-.664,2.924-2.577,2.662-1.554-.213-2.323.293-2.66,2.013-.692,3.529-1.823,6.971-2.552,10.5-.447,2.162-1.338,3.271-3.672,2.853A17.869,17.869,0,0,0,68.335,59.637Z" style="fill:#19171c"/><path d="M19.366,30.634A19.366,19.366,0,1,0,38.732,50,19.366,19.366,0,0,0,19.366,30.634Zm5.223,21.127v-9.61a3.691,3.691,0,0,1,.062-.7,13.169,13.169,0,0,1,1.258-3.621,13.99,13.99,0,0,1,3.6,2.82,2.215,2.215,0,0,0-1.243,1.973v8.638a3.541,3.541,0,0,1-1.043,2.521l-.24.238a3.541,3.541,0,0,1-2.52,1.044h-3.01A3.316,3.316,0,0,0,24.589,51.761ZM12.823,37.833a13.167,13.167,0,0,1,1.255,3.609,3.8,3.8,0,0,1,.065.722v9.6a3.316,3.316,0,0,0,3.137,3.306H14.27a3.541,3.541,0,0,1-2.52-1.044l-.24-.238a3.541,3.541,0,0,1-1.043-2.521V42.626a2.215,2.215,0,0,0-1.243-1.973A13.99,13.99,0,0,1,12.823,37.833ZM8.9,41A1.76,1.76,0,0,1,10,42.626v8.638a4.008,4.008,0,0,0,1.181,2.853l.238.238a4.014,4.014,0,0,0,2.854,1.182H24.461a4.014,4.014,0,0,0,2.854-1.182l.238-.238a4.008,4.008,0,0,0,1.181-2.853V42.626A1.76,1.76,0,0,1,29.831,41a13.852,13.852,0,0,1,1.264,1.681,2.166,2.166,0,0,0-.343,1.116v8.638a3.541,3.541,0,0,1-1.043,2.521l-.24.238a3.541,3.541,0,0,1-2.52,1.044H11.784a3.541,3.541,0,0,1-2.52-1.044l-.24-.238A3.541,3.541,0,0,1,7.98,52.434V43.8a2.166,2.166,0,0,0-.343-1.116A13.852,13.852,0,0,1,8.9,41ZM19.366,62.5a47.77,47.77,0,0,1-4.9-.234,47.738,47.738,0,0,1,4.9-.235,47.738,47.738,0,0,1,4.9.235A47.77,47.77,0,0,1,19.366,62.5Zm0-1.612c-2.118-.027-4.237-.04-6.355-.235,2.118-.195,4.237-.208,6.355-.235,2.118.027,4.237.04,6.355.235C23.6,60.844,21.484,60.857,19.366,60.884Zm0-1.612c-2.924-.027-5.849-.04-8.773-.235,2.924-.195,5.849-.207,8.773-.235,2.924.027,5.849.04,8.773.235C25.215,59.232,22.29,59.245,19.366,59.272Zm11.768-2H7.6a13.689,13.689,0,0,1-.222-14.145,1.746,1.746,0,0,1,.135.665v8.638a4.008,4.008,0,0,0,1.181,2.853l.24.238a4.009,4.009,0,0,0,2.852,1.182H26.948A4.009,4.009,0,0,0,29.8,55.526l.24-.238a4.008,4.008,0,0,0,1.181-2.853V43.8a1.746,1.746,0,0,1,.135-.665,13.689,13.689,0,0,1-.222,14.145Z" style="fill:url(#a)"/></svg>