<svg xmlns="http://www.w3.org/2000/svg" viewBox="0 0 100 100"><title>icon-client-guodian</title><path d="M43.372,72.213a7.5,7.5,0,0,1-5.474-2.3c-5.224-5.279-10.537-10.47-15.783-15.727-3.065-3.071-3.112-5.313-.029-8.414Q33.637,34.153,45.3,22.646c1.576-1.564,3.318-2.97,5.735-2.581,1.26.2,2.779.446,3.255,1.844.421,1.237-.864,1.891-1.595,2.628Q43.817,33.5,34.886,42.409a20.56,20.56,0,0,0-2,2.163c-1.267,1.7-1.339,3.405.243,5.007q5.412,5.478,10.81,10.969c1.129,1.15,2.455,1.742,3.72.489,1.4-1.384-.331-2.124-1.025-2.864-4.994-5.327-3.786-4.362.239-8.6.15-.158.307-.311.466-.461,6.208-5.851,7.306-6.034,14.157,1.45a3.7,3.7,0,0,1,.081,5.107C57.031,61.6,51.26,66.322,45.937,71.483A3.761,3.761,0,0,1,43.372,72.213Z" style="fill:#064ca4"/><path d="M38.471,47.406a6.781,6.781,0,0,1,1.984-4.259c4.157-4.187,8.255-8.433,12.457-12.575,3.158-3.113,6.226-3.135,9.457-.006,5.259,5.092,10.44,10.264,15.6,15.456,2.877,2.894,3.039,4.982.132,7.906C69.784,62.292,61.309,70.5,52.9,78.774a3.81,3.81,0,0,1-3.585,1.143,3.232,3.232,0,0,1-2.781-2.012c-.338-1.1.647-1.751,1.34-2.435q9.212-9.1,18.423-18.2c3.494-3.456,3.515-4.683.143-8.093-2.916-2.949-5.893-5.841-8.755-8.842-1.963-2.059-3.68-2.284-5.8-.119-2.976,3.042-6.149,5.891-9.269,8.79-.75.7-1.38,1.983-2.69,1.306C38.741,49.7,38.6,48.407,38.471,47.406Z" style="fill:#429a29"/></svg>